<svg width="64" height="64" viewBox="0 0 64 64" fill="none" xmlns="http://www.w3.org/2000/svg">
<path d="M57.7375 32.84C57.098 31.1675 55.7745 30.3545 53.6905 30.3545H48.304V28.563C48.304 26.813 46.8805 25.3895 45.1305 25.3895H8.89249C7.14249 25.3895 5.71899 26.813 5.71899 28.563V39.1125C5.71899 50.63 15.0895 60.0005 26.607 60.0005H27.4165C35.446 60.0005 42.4275 55.4435 45.9225 48.7825H50.2535C54.6805 48.7825 58.2815 45.181 58.2815 40.7545V38.2475C58.2815 36.1985 58.2815 34.2635 57.7375 32.84ZM27.4165 59H26.607C15.6405 59 6.71899 50.0785 6.71899 39.112V28.5625C6.71899 27.364 7.69399 26.389 8.89249 26.389H45.131C46.3295 26.389 47.3045 27.364 47.3045 28.5625V30.8385C47.3045 30.844 47.3015 30.8485 47.3015 30.854C47.3015 30.8595 47.3045 30.864 47.3045 30.8695V39.1115C47.3045 42.304 46.544 45.3205 45.2015 47.997C45.1715 48.039 45.147 48.0835 45.131 48.134C41.8365 54.5765 35.1355 59 27.4165 59ZM57.2815 40.754C57.2815 44.629 54.1285 47.782 50.2535 47.782H46.4125C47.6235 45.139 48.3045 42.204 48.3045 39.112V31.354H53.691C55.3565 31.354 56.3165 31.9225 56.804 33.197C57.2825 34.448 57.282 36.2935 57.282 38.247V40.754H57.2815Z" fill="white"/>
<path d="M15.834 22.0845C15.928 22.241 16.0935 22.327 16.263 22.327C16.3505 22.327 16.4395 22.304 16.52 22.2555C16.757 22.1135 16.8335 21.8065 16.6915 21.5695L15.135 18.975C14.257 17.512 14.487 15.647 15.6935 14.4405L16.2105 13.9235C17.2535 12.8805 17.752 11.3855 17.543 9.92501L16.758 4.42901C16.719 4.15551 16.468 3.96851 16.1925 4.00501C15.9195 4.04401 15.7295 4.29701 15.7685 4.57051L16.5535 10.0665C16.718 11.217 16.3255 12.3945 15.5035 13.216L14.9865 13.733C13.455 15.2645 13.1635 17.6315 14.278 19.4895L15.834 22.0845Z" fill="white"/>
<path d="M25.5805 22.0845C25.6745 22.241 25.84 22.327 26.0095 22.327C26.097 22.327 26.186 22.304 26.2665 22.2555C26.5035 22.1135 26.58 21.8065 26.438 21.5695L24.8815 18.975C24.0035 17.5115 24.233 15.647 25.4395 14.4405L25.9565 13.9235C26.9995 12.8805 27.498 11.3855 27.2895 9.92501L26.5045 4.42901C26.4655 4.15551 26.213 3.96851 25.939 4.00501C25.666 4.04401 25.476 4.29701 25.515 4.57051L26.3 10.0665C26.4645 11.217 26.0715 12.3945 25.25 13.216L24.733 13.733C23.2015 15.2645 22.91 17.6315 24.0245 19.4895L25.5805 22.0845Z" fill="white"/>
<path d="M35.327 22.0845C35.421 22.241 35.5865 22.327 35.756 22.327C35.8435 22.327 35.9325 22.304 36.013 22.2555C36.25 22.1135 36.3265 21.8065 36.1845 21.5695L34.6275 18.975C33.7495 17.512 33.9795 15.647 35.186 14.4405L35.703 13.9235C36.746 12.8805 37.2445 11.3855 37.036 9.92501L36.251 4.42901C36.212 4.15551 35.9605 3.96851 35.6855 4.00501C35.4125 4.04401 35.2225 4.29701 35.2615 4.57051L36.0465 10.0665C36.211 11.217 35.818 12.3945 34.9965 13.216L34.4795 13.733C32.948 15.2645 32.6565 17.6315 33.771 19.4895L35.327 22.0845Z" fill="white"/>
</svg>
