<svg width="66" height="66" viewBox="0 0 66 66" fill="none" xmlns="http://www.w3.org/2000/svg">
<path fill-rule="evenodd" clip-rule="evenodd" d="M48.2308 16.3151C49.1049 16.5599 49.7097 17.3549 49.7135 18.262C49.7362 18.3199 49.7365 18.3543 49.7365 18.3543C49.7365 18.3543 49.7268 26.1242 40.527 33.2766C37.1067 35.9353 34.1012 40.1148 32.9617 44.1893C32.7387 44.9769 32.0679 45.5551 31.2568 45.6617C30.4455 45.7672 29.6486 45.3809 29.2304 44.6778C26.8796 40.5892 24.886 33.9131 29.3651 26.146C33.7308 18.5767 41.7027 14.6183 48.2308 16.3151Z" fill="white"/>
<path fill-rule="evenodd" clip-rule="evenodd" d="M36.2148 50.8015C35.3144 50.5537 34.6885 49.736 34.6847 48.8016C34.6614 48.7689 34.6608 48.7501 34.6608 48.7501C34.6608 48.7501 34.6705 40.9803 43.8704 33.8278C47.3228 31.1439 50.3523 26.9107 51.467 22.7998C51.6783 22.0327 52.3253 21.4654 53.114 21.3564C53.9018 21.2477 54.6788 21.6182 55.0894 22.2994C57.4749 26.3738 59.5589 33.109 55.0323 40.9585C50.6772 48.5094 42.7339 52.4667 36.2148 50.8015Z" fill="white"/>
<path fill-rule="evenodd" clip-rule="evenodd" d="M24.7196 50.6526C25.6168 50.6413 26.3975 50.0359 26.6337 49.1707C26.6729 49.1109 26.6831 49.0728 26.6831 49.0728C26.6831 49.0728 28.6848 41.5642 21.6496 32.2757C19.0426 28.8334 17.2255 24.0391 17.1678 19.8182C17.1523 18.9922 16.6481 18.2549 15.8829 17.9414C15.1187 17.6279 14.2411 17.799 13.6502 18.3765C10.3327 21.725 6.71502 27.6454 9.02296 36.2739C11.2824 44.7229 17.968 50.6124 24.7196 50.6526ZM29.4005 46.1388C30.1997 46.5967 30.8567 46.7885 31.8023 46.6277C31.4032 47.5816 30.8123 48.2869 30.2471 48.7881C29.9893 48.9913 29.6336 49.0191 29.3479 48.8582C29.0612 48.6984 28.8993 48.3808 28.9385 48.0549C28.9643 47.5352 29.0891 46.9174 29.4005 46.1388ZM32.9583 19.7553C25.5106 25.2168 25.4529 33.2338 25.1507 32.8347C18.1155 23.5452 19.9903 15.8108 19.9903 15.8108C19.9903 15.8108 20.0017 15.7685 20.0202 15.6994C20.2564 14.8342 21.0309 14.2237 21.9281 14.1979C25.9283 14.2453 29.9079 16.315 32.9583 19.7553Z" fill="white"/>
</svg>
