<svg width="48" height="48" viewBox="0 0 48 48" fill="none" xmlns="http://www.w3.org/2000/svg">
<path d="M12.93 0C8.42623 0 4.73998 3.66375 4.73998 8.16C4.73998 12.6562 8.42623 16.32 12.93 16.32H15.36V21.12H20.16V16.32H30.72V39.36H24.78C25.095 38.9137 25.4062 38.3812 25.71 37.74C26.8725 35.28 27.84 31.2975 27.84 24.96C27.84 24.4312 27.4087 24 26.88 24H8.63998C8.60998 24 8.57998 24 8.54998 24C8.05498 24.045 7.67623 24.4613 7.67998 24.96C7.67998 25.7213 7.68373 26.4562 7.70998 27.15C7.28248 26.9887 6.79498 26.88 6.23998 26.88C3.86623 26.88 1.91998 28.8263 1.91998 31.2C1.91998 33.5737 3.86623 35.52 6.23998 35.52H8.96998C9.23248 36.375 9.50998 37.1025 9.80998 37.74C10.1137 38.3812 10.425 38.9137 10.74 39.36H7.19998C5.88748 39.36 4.79998 40.4475 4.79998 41.76V45.6C4.79998 46.9125 5.88748 48 7.19998 48H43.68C45.525 48 47.04 46.485 47.04 44.64V40.32C47.0437 40.2712 47.0437 40.2188 47.04 40.17L42.66 13.98C44.1787 12.4987 45.12 10.4362 45.12 8.16C45.12 3.66375 41.4337 0 36.93 0H12.93ZM12.93 1.92H36.93C40.3987 1.92 43.2 4.7025 43.2 8.16C43.2 11.6175 40.3987 14.4 36.93 14.4H16.5C16.3725 14.3737 16.2375 14.3737 16.11 14.4H12.93C9.46123 14.4 6.65998 11.6175 6.65998 8.16C6.65998 4.7025 9.46123 1.92 12.93 1.92ZM40.92 15.27L45.12 40.47V44.64C45.12 45.4463 44.4862 46.08 43.68 46.08H7.19998C6.92623 46.08 6.71998 45.8737 6.71998 45.6V41.76C6.71998 41.4862 6.92623 41.28 7.19998 41.28H31.68C32.2087 41.28 32.64 40.8487 32.64 40.32V16.32H36.93C38.3775 16.32 39.7387 15.9337 40.92 15.27ZM17.28 16.32H18.24V19.2H17.28V16.32ZM9.68998 25.92H25.83C25.7212 31.38 24.9 34.9312 23.97 36.9C23.475 37.95 22.9762 38.6063 22.59 38.97C22.2975 39.2437 22.0387 39.3337 22.02 39.36H13.5C13.4812 39.3337 13.2225 39.2437 12.93 38.97C12.5437 38.6063 12.045 37.95 11.55 36.9C10.62 34.9312 9.79873 31.38 9.68998 25.92ZM6.23998 28.8C7.01623 28.8 7.55998 29.1787 7.88998 29.49C8.02873 31.0537 8.23123 32.4075 8.48998 33.6H6.23998C4.90498 33.6 3.83998 32.535 3.83998 31.2C3.83998 29.865 4.90498 28.8 6.23998 28.8ZM38.4 33.6C37.3387 33.6 36.48 34.4587 36.48 35.52C36.48 36.5812 37.3387 37.44 38.4 37.44C39.4612 37.44 40.32 36.5812 40.32 35.52C40.32 34.4587 39.4612 33.6 38.4 33.6Z" fill="white"/>
</svg>
