<svg width="70" height="70" viewBox="0 0 70 70" fill="none" xmlns="http://www.w3.org/2000/svg">
<path d="M30.128 45.5546C30.1294 45.5553 30.1308 45.5553 30.1322 45.556C30.1336 45.5567 30.135 45.5581 30.135 45.5581C31.2452 46.1006 32.5724 46.3736 33.9822 46.3736C35.2856 46.3736 36.659 46.1405 37.9981 45.6736C42.6811 44.0384 45.5742 40.0239 44.4486 36.7248C44.4423 36.7066 44.4353 36.6884 44.4269 36.6709C43.6352 34.4463 41.1677 33.0519 38.0338 33.0078C37.1308 30.0538 35.1778 28.1337 32.8419 27.9468C32.8398 27.9468 32.8384 27.9461 32.8363 27.9461C32.8286 27.9454 32.8216 27.944 32.8139 27.9433C31.4965 27.8509 30.2001 28.3178 29.0647 29.3041C27.2783 30.856 26.0925 33.5349 25.8937 36.47C25.613 40.6581 27.3525 44.3842 30.128 45.5546ZM37.5459 44.3793C36.6296 44.6985 35.7007 44.8959 34.8012 44.9708C34.9853 44.842 35.168 44.7055 35.3451 44.5515C37.0629 43.0584 38.2144 40.523 38.4769 37.7006C40.3466 36.4336 42.455 37.1105 43.2194 37.4318C43.8543 39.9735 41.3868 43.0381 37.5459 44.3793ZM38.5287 36.0962C38.5105 35.518 38.4594 34.9489 38.3628 34.3945C39.9084 34.4729 41.2139 34.9391 42.0994 35.6951C41.0837 35.5201 39.8027 35.5159 38.5287 36.0962ZM36.8522 33.8646C37.1252 34.9384 37.2246 36.0836 37.1462 37.2953C36.9733 39.872 35.9646 42.1981 34.4463 43.5176C34.1264 43.7955 33.7932 44.0188 33.4523 44.1868C33.9213 43.4679 34.3567 42.5292 34.4708 41.4148C34.6416 39.7411 34.0564 38.0842 32.7313 36.4903C31.654 35.1939 31.1731 33.8828 31.3005 32.5927C31.4601 30.982 32.5213 29.7997 32.9777 29.3587C34.7123 29.6394 36.2166 31.3614 36.8522 33.8646ZM27.2608 36.5617C27.4358 33.9829 28.4459 31.6561 29.9635 30.3387C30.282 30.0615 30.6145 29.8396 30.9554 29.6723C30.4871 30.3905 30.0524 31.3285 29.939 32.4415C29.7682 34.1152 30.3534 35.7721 31.6778 37.366C32.7551 38.6624 33.236 39.9735 33.1086 41.2629C32.9385 42.9814 31.7387 44.2155 31.3488 44.576C31.15 44.5053 30.9533 44.4311 30.7685 44.3422C30.7566 44.3359 30.7433 44.3331 30.7314 44.3268C30.7181 44.3205 30.7069 44.3107 30.6929 44.3051C28.4648 43.3916 27.0214 40.1352 27.2608 36.5617Z" fill="white"/>
<path d="M55.3189 8.8823H52.465L50.9971 3.9886C50.9096 3.6981 50.6429 3.5 50.3398 3.5H19.6602C19.3578 3.5 19.0904 3.6981 19.0036 3.9886L17.5357 8.8823H14.6818C14.3031 8.8823 13.9965 9.1889 13.9965 9.5676V14.9499C13.9965 15.3286 14.3031 15.6352 14.6818 15.6352H15.9271L19.5083 65.8637C19.5335 66.2221 19.8317 66.5 20.1915 66.5H49.8078C50.1669 66.5 50.4658 66.2221 50.491 65.8637L54.0722 15.6352H55.3182C55.6969 15.6352 56.0035 15.3286 56.0035 14.9499V9.5676C56.0042 9.1896 55.6976 8.8823 55.3189 8.8823ZM20.1698 4.8706H49.8302L51.0342 8.8823H18.9665L20.1698 4.8706ZM20.8299 65.1294L20.6115 62.0697H49.3878L49.1694 65.1294H20.8299ZM49.4858 60.6998H20.5135L17.3005 15.6359H52.6988L49.4858 60.6998ZM54.6336 14.2653H53.4352H16.5648H15.3664V10.2536H18.0453H51.9547H54.6336V14.2653Z" fill="white"/>
<path d="M35 51.6404C42.9877 51.6404 49.4872 45.1416 49.4872 37.1532C49.4872 29.1648 42.9877 22.666 35 22.666C27.0116 22.666 20.5128 29.1648 20.5128 37.1532C20.5128 45.1416 27.0116 51.6404 35 51.6404ZM35 24.0366C42.2324 24.0366 48.1166 29.9208 48.1166 37.1532C48.1166 44.3856 42.2324 50.2698 35 50.2698C27.7669 50.2698 21.8834 44.3856 21.8834 37.1532C21.8834 29.9208 27.7669 24.0366 35 24.0366Z" fill="white"/>
</svg>
